<svg version="1.1" id="Layer_1" xmlns="http://www.w3.org/2000/svg" xmlns:xlink="http://www.w3.org/1999/xlink" x="0px" y="0px"
	 width="100%" viewBox="0 0 272 288" enable-background="new 0 0 272 288" xml:space="preserve">
<path fill="#000000" opacity="1.000000" stroke="none" 
	d="
M50.466118,289.000000 
	C52.616772,286.043579 56.242756,284.533020 59.665627,283.054413 
	C76.961639,275.582794 84.225883,262.329529 83.681992,243.862869 
	C83.514641,238.181030 82.825699,233.205231 79.253387,228.508148 
	C71.929710,218.878494 69.916000,207.353714 68.694389,195.685211 
	C68.282852,191.754318 67.202492,189.030396 62.778069,187.752991 
	C58.341763,186.472153 55.220470,182.863464 53.278809,178.646820 
	C47.179741,165.401596 42.692913,151.697113 42.696152,136.915100 
	C42.698627,125.599884 48.604130,119.766190 60.162178,119.619659 
	C61.067108,116.616928 60.565723,113.534111 60.333084,110.442467 
	C59.365730,97.586800 59.730392,84.619873 63.357132,72.346954 
	C70.610603,47.801090 85.895615,30.018141 110.541336,21.151009 
	C137.869614,11.318728 165.025085,11.426479 190.861664,25.038778 
	C214.197830,37.333706 227.129684,57.562565 230.457352,83.897331 
	C231.945221,95.672096 231.938629,107.388657 230.567062,119.421471 
	C232.993454,119.657913 235.474304,119.574280 237.771408,120.183464 
	C245.169739,122.145454 249.948792,129.690994 249.083755,139.149292 
	C247.850235,152.636658 244.672638,165.711014 238.637024,177.951111 
	C235.950455,183.399460 232.055603,187.671951 225.947189,189.133636 
	C222.756439,189.897125 222.724365,192.510376 222.559998,194.541580 
	C221.438980,208.394424 218.215057,221.446960 209.520798,232.705154 
	C208.774277,233.671875 208.378693,235.204788 208.433578,236.447586 
	C208.807343,244.912201 208.796432,253.429169 210.756241,261.739990 
	C212.129883,267.565125 216.000595,271.612396 220.602356,275.142761 
	C227.233368,280.229889 234.842026,283.730011 241.877106,288.676849 
	C237.310745,289.000000 232.621490,289.000000 227.466125,289.000000 
	C226.190048,287.419556 224.692429,286.561584 223.242737,285.816254 
	C207.895813,277.925690 202.145508,264.760345 201.611343,248.187286 
	C201.297745,238.457352 202.269348,229.584824 208.098053,221.246582 
	C213.558533,213.435089 214.266815,203.828583 215.615128,194.610092 
	C215.878967,192.806229 216.365799,191.018753 216.456757,189.208984 
	C216.695557,184.457245 216.986084,180.670746 223.885971,182.188705 
	C227.372787,182.955811 229.967209,179.135864 231.712021,176.062134 
	C236.535294,167.565231 238.783890,158.195923 240.630585,148.701599 
	C241.491776,144.273911 242.119904,139.838058 241.721329,135.327667 
	C241.354630,131.177963 239.508636,127.738136 235.308350,126.752838 
	C231.483368,125.855576 229.803802,128.992447 228.322693,131.890060 
	C227.361649,133.770233 226.152832,135.544724 223.722351,134.485199 
	C220.908920,133.258728 221.447952,130.594116 221.889709,128.374054 
	C224.040466,117.565392 225.055054,106.673286 224.649796,95.660004 
	C223.844009,73.762268 216.603653,54.711121 199.978760,39.771889 
	C187.141602,28.236315 171.481094,23.260580 154.888260,21.646961 
	C132.938263,19.512367 112.280922,24.463562 94.662148,38.066547 
	C79.163689,50.032497 69.947807,65.951675 68.141800,85.959740 
	C66.846550,100.309433 66.995293,114.515106 69.394226,128.703583 
	C69.792427,131.058777 70.440094,133.628845 67.481987,134.627563 
	C64.533806,135.622940 63.438572,133.191483 62.351395,131.084808 
	C60.969509,128.407028 59.005444,126.188850 55.794971,126.655235 
	C52.695499,127.105492 51.225590,129.683182 50.244663,132.499710 
	C48.636745,137.116531 49.454552,141.698700 50.261375,146.306763 
	C51.931355,155.844620 54.550926,165.120483 58.585869,173.911118 
	C60.780006,178.691345 63.432835,183.052963 70.329178,181.192963 
	C73.549644,180.324387 74.050697,183.431549 74.402313,186.095474 
	C75.357605,193.333191 76.273491,200.590683 77.664902,207.750961 
	C78.548767,212.299316 79.747780,217.038315 82.909615,220.580734 
	C92.036766,230.806564 90.706940,242.925919 89.838120,255.102158 
	C88.831406,269.210876 81.400352,278.875763 69.467178,285.632507 
	C68.032204,286.444977 66.735657,287.501923 65.187485,288.722778 
	C60.310745,289.000000 55.621487,289.000000 50.466118,289.000000 
z"/>
</svg>