<svg version="1.1" id="Layer_1" xmlns="http://www.w3.org/2000/svg" xmlns:xlink="http://www.w3.org/1999/xlink" x="0px" y="0px"
	 width="100%" viewBox="0 0 320 304" enable-background="new 0 0 320 304" xml:space="preserve">
<path fill="#000000" opacity="1.000000" stroke="none" 
	d="
M91.444168,305.000000 
	C101.879234,288.016846 99.843735,268.958221 99.805115,250.220123 
	C99.801048,248.246964 98.679436,246.752701 97.593544,245.294113 
	C88.635269,233.261215 85.127975,219.350037 83.758705,204.756927 
	C83.504974,202.052734 82.847839,200.424026 79.965866,199.931442 
	C74.384666,198.977509 70.622482,195.377960 68.499298,190.456833 
	C62.618511,176.826355 57.938980,162.825806 57.685604,147.757416 
	C57.623272,144.050491 58.507622,140.465332 60.497524,137.296005 
	C63.605106,132.346542 68.172424,130.659836 73.981781,131.981674 
	C75.082970,129.375793 74.431541,126.976433 74.225571,124.529594 
	C71.244240,89.113724 78.101318,57.840508 111.496803,37.119221 
	C129.389755,26.016977 149.514664,23.296930 170.159973,25.171047 
	C186.406494,26.645853 201.955032,30.963751 215.393677,40.750957 
	C234.123581,54.391716 244.007324,73.093407 246.349380,95.999985 
	C247.386368,106.142273 247.415970,116.265015 246.445877,126.408188 
	C246.258743,128.364822 246.418991,130.354660 246.418991,132.772354 
	C250.715256,131.846497 254.828491,130.613434 258.375946,133.825592 
	C261.063354,136.259018 262.643280,139.263046 263.316589,142.831772 
	C264.132660,147.156967 263.899536,151.539413 263.137329,155.729370 
	C261.022552,167.355362 258.143280,178.815735 252.953308,189.530777 
	C250.544037,194.504852 247.098495,198.398239 241.326401,199.587631 
	C238.662384,200.136551 237.655609,201.995132 237.342026,204.613388 
	C235.503815,219.962219 231.890869,234.713028 222.578537,247.511017 
	C221.930405,248.401764 221.496475,249.667374 221.480820,250.766052 
	C221.284317,264.563751 220.782562,278.384094 224.543335,291.900940 
	C225.818100,296.482666 228.435043,300.331696 230.884964,304.675323 
	C228.299988,305.000000 225.599976,305.000000 222.355682,304.645447 
	C214.594025,289.912384 214.188232,274.374023 214.714798,257.719452 
	C207.460968,265.830505 199.827362,271.704651 192.574936,278.024963 
	C176.516724,292.019287 143.442688,290.871918 128.287048,277.922028 
	C122.329163,272.831207 116.607620,267.545776 111.062607,262.033844 
	C110.090141,261.067169 109.508362,259.435852 107.426781,259.496307 
	C107.171890,275.177643 107.117615,290.860504 99.000000,305.000000 
	C96.629440,305.000000 94.258888,305.000000 91.444168,305.000000 
M232.181656,71.259293 
	C224.825516,57.015980 214.134323,46.243900 199.343140,39.756031 
	C183.235077,32.690548 166.240295,30.739698 149.002777,32.533726 
	C132.352142,34.266678 116.986427,39.812294 104.229614,51.399281 
	C83.876549,69.885918 79.329346,93.741066 80.778854,119.609818 
	C81.224373,127.560760 82.482391,135.464310 83.271111,143.399216 
	C83.466118,145.361038 83.685043,147.658447 81.199799,148.457916 
	C78.809113,149.226944 77.557564,147.388641 76.409531,145.735535 
	C75.273216,144.099289 74.429802,142.229065 73.139694,140.736557 
	C70.472343,137.650742 67.970421,137.990616 66.183716,141.633667 
	C64.535248,144.994843 63.941551,148.603333 64.501472,152.328171 
	C66.088989,162.889023 68.956367,173.120392 72.688431,183.107407 
	C73.792915,186.063004 75.028740,189.030014 77.396683,191.266922 
	C79.191452,192.962341 80.920242,194.067184 83.430092,191.922028 
	C86.257011,189.505875 88.387779,190.781708 89.268188,194.099335 
	C89.818398,196.172684 90.067162,198.336044 90.329956,200.473938 
	C91.505959,210.040878 92.153419,219.775894 96.427856,228.604858 
	C105.941437,248.255402 120.092010,263.894562 138.354752,275.802124 
	C141.142578,277.619843 144.255692,278.869415 147.583115,279.479004 
	C164.429916,282.565216 179.766373,280.441284 193.277985,268.523041 
	C211.176407,252.735245 226.125992,235.399261 229.358109,210.611221 
	C230.045288,205.341080 230.676208,200.063583 231.362930,194.793381 
	C231.739441,191.903976 232.886780,189.995697 236.301315,191.080643 
	C241.902557,192.860382 244.134598,192.240982 246.745361,186.519547 
	C252.086502,174.814514 255.894470,162.590973 256.626862,149.635651 
	C256.836426,145.929230 257.698090,141.183228 253.318848,139.508179 
	C248.732758,137.754028 246.919479,142.549896 244.346252,145.154251 
	C243.125122,146.390137 242.394516,148.692505 240.090271,147.625885 
	C237.792557,146.562286 237.306656,144.234055 237.810150,142.039368 
	C240.867981,128.710678 239.645752,115.190811 239.612701,101.746651 
	C239.587097,91.328011 237.121704,81.332901 232.181656,71.259293 
z"/>
</svg>