<svg version="1.1" id="Layer_1" xmlns="http://www.w3.org/2000/svg" xmlns:xlink="http://www.w3.org/1999/xlink" x="0px" y="0px"
	 width="100%" viewBox="0 0 272 288" enable-background="new 0 0 272 288" xml:space="preserve">
<path fill="#000000" opacity="1.000000" stroke="none" 
	d="
M119.775909,235.896973 
	C113.328598,239.026657 107.207153,241.975037 100.692032,245.113022 
	C107.818764,254.185196 107.788368,265.402710 110.948227,275.589172 
	C111.474701,277.286377 111.331009,279.217438 111.342529,281.041412 
	C111.355057,283.027435 110.674126,284.820374 108.468018,285.108795 
	C106.141937,285.412964 105.283806,283.609283 104.866875,281.741089 
	C103.420845,275.261810 102.074043,268.760406 100.658951,262.274109 
	C100.234230,260.327332 99.752655,258.390503 99.222656,256.469635 
	C97.908981,251.708618 94.806213,249.277771 89.818947,249.057465 
	C83.773956,248.790405 77.911392,250.065399 71.980186,250.826141 
	C66.006325,251.592331 60.047890,251.719162 54.165367,249.925690 
	C42.547680,246.383698 36.946007,236.837326 40.271137,225.146362 
	C41.779823,219.841919 42.372658,215.284515 38.186123,210.819351 
	C36.152687,208.650574 35.343658,205.544571 36.577148,202.386826 
	C36.817909,201.770462 37.286686,200.887512 37.047501,200.492828 
	C33.644447,194.877319 34.897446,188.977997 35.729473,183.053818 
	C36.063599,180.674805 34.374115,179.354553 32.357761,178.700974 
	C30.467678,178.088318 28.490685,177.672638 26.520384,177.390961 
	C18.089207,176.185608 12.534703,165.661011 18.531439,157.860168 
	C25.631994,148.623444 31.980724,138.812744 38.870766,129.408661 
	C42.824059,124.012901 43.752663,118.837051 40.172115,112.795029 
	C38.048798,109.212013 37.373764,105.072647 38.572578,100.764534 
	C42.184002,87.786400 45.607510,74.728615 51.093796,62.392513 
	C59.643002,43.169342 75.735359,32.826069 94.826027,26.277960 
	C124.050385,16.253992 153.678329,14.401282 183.641068,22.519770 
	C212.793121,30.418594 230.945496,49.780991 240.255112,77.977570 
	C249.821136,106.950768 244.973465,134.371185 231.098145,160.806061 
	C225.761978,170.972412 220.527924,181.189804 217.830414,192.494583 
	C213.429184,210.939255 214.718979,229.118851 219.987518,247.161606 
	C221.624664,252.768234 223.792145,258.161133 226.347961,263.413452 
	C227.460083,265.698944 228.560486,268.503326 225.594040,269.964447 
	C222.571365,271.453278 220.987930,268.730896 219.936996,266.510620 
	C211.310226,248.285110 207.547867,229.088638 208.276306,208.916031 
	C208.990097,189.148483 217.144714,171.900528 226.001663,154.870255 
	C232.763474,141.868576 237.876373,128.195221 238.290054,113.568062 
	C239.349350,76.113403 220.013046,34.274071 171.646179,26.944418 
	C144.536606,22.836149 118.291084,24.790096 92.675201,34.433674 
	C72.164101,42.155460 58.587513,56.508850 52.335926,77.645210 
	C50.166084,84.981369 47.861752,92.277748 45.619923,99.592621 
	C44.359901,103.703949 44.120083,107.818840 46.443169,111.608421 
	C51.234169,119.423843 49.444172,126.489731 44.453777,133.408142 
	C37.925175,142.459045 31.509808,151.591797 25.068579,160.705490 
	C21.062038,166.374329 22.228659,169.260757 29.048990,170.734589 
	C30.836975,171.120956 32.645103,171.468887 34.381939,172.027405 
	C40.908077,174.125961 44.086754,179.311371 42.354244,185.930481 
	C41.213860,190.287354 41.217724,194.082458 44.355946,197.548141 
	C45.436630,198.741562 46.144657,200.352722 45.060146,201.641891 
	C42.334404,204.881973 43.651550,207.193100 46.062569,209.853210 
	C49.463764,213.605820 48.566875,218.256821 47.907486,222.713684 
	C47.665936,224.346405 46.985554,225.909164 46.647045,227.533386 
	C44.898289,235.924072 49.412582,242.473328 57.904610,243.781921 
	C69.338684,245.543884 80.582794,243.759537 91.420685,240.548523 
	C104.709610,236.611343 116.973206,230.165344 128.745636,222.789307 
	C140.954498,215.139801 145.270752,203.379395 146.637268,189.922012 
	C147.005920,186.291626 147.381516,182.661880 147.771042,179.033691 
	C147.997803,176.921432 148.872223,175.126251 150.849152,174.203751 
	C153.039246,173.181808 154.246399,174.812302 155.381805,176.267624 
	C157.155746,178.541367 159.350998,178.798309 161.516846,177.204514 
	C173.558487,168.343323 182.718384,157.443192 184.555008,142.002975 
	C185.298767,135.750290 182.106216,130.679459 177.471039,128.854126 
	C172.411789,126.861778 166.746826,128.509232 162.627045,133.188705 
	C162.077621,133.812775 161.609894,134.508087 161.074158,135.145020 
	C159.816330,136.640381 158.369781,137.831436 156.368591,136.557877 
	C154.181946,135.166321 154.596100,133.312073 155.641434,131.332718 
	C158.995865,124.981003 167.896255,120.759850 176.183273,121.662254 
	C183.302521,122.437500 188.507645,127.270302 190.458466,135.083481 
	C192.940796,145.025406 189.871765,153.901962 184.636795,162.116699 
	C180.790573,168.152222 176.310715,173.761063 171.117783,178.763779 
	C166.611847,183.104675 161.612900,186.013641 154.696121,184.880402 
	C153.606018,190.682999 152.584854,196.364365 151.465530,202.026352 
	C149.048767,214.251358 141.972885,223.084259 131.391037,229.301468 
	C127.659775,231.493698 123.866653,233.580658 119.775909,235.896973 
z"/>
</svg>